<svg xmlns="http://www.w3.org/2000/svg" width="12" height="12" viewBox="0 0 12 12">
  <path id="icon_close02" d="M86.5,182.51H89v-.9H83v.9h3.5ZM86,188a5.808,5.808,0,0,1-2.332-.473,6.061,6.061,0,0,1-3.2-3.2,6.005,6.005,0,0,1,0-4.67,6,6,0,0,1,1.29-1.9,6.158,6.158,0,0,1,1.91-1.283,6.005,6.005,0,0,1,4.67,0,6,6,0,0,1,3.185,3.188,6,6,0,0,1,0,4.669,6.128,6.128,0,0,1-1.283,1.906,6.057,6.057,0,0,1-1.9,1.29A5.8,5.8,0,0,1,86,188Zm0-.9a5.1,5.1,0,1,0-3.615-1.493A4.9,4.9,0,0,0,86.007,187.1ZM86,182Z" transform="translate(-80 -176)" fill="#5b7593"/>
</svg>
