<svg xmlns="http://www.w3.org/2000/svg" xmlns:xlink="http://www.w3.org/1999/xlink" width="22" height="16" viewBox="0 0 22 16">
  <defs>
    <clipPath id="clip-path">
      <rect id="長方形_1470" data-name="長方形 1470" width="22" height="16" transform="translate(0 -1)" fill="#5b7593" stroke="#707070" stroke-width="1"/>
    </clipPath>
  </defs>
  <g id="icon_Item-display" transform="translate(0 1)" clip-path="url(#clip-path)">
    <path id="view_list_FILL0_wght400_GRAD0_opsz48" d="M86.328,269.594H97.344v-3.211H86.328Zm-4.922-8.977h3.516v-3.211H81.406Zm0,4.383h3.516v-2.977H81.406Zm0,4.594h3.516v-3.211H81.406ZM86.328,265H97.344v-2.977H86.328Zm0-4.383H97.344v-3.211H86.328ZM81.406,271A1.442,1.442,0,0,1,80,269.594V257.406A1.442,1.442,0,0,1,81.406,256H97.344a1.442,1.442,0,0,1,1.406,1.406v12.188A1.442,1.442,0,0,1,97.344,271Z" transform="translate(-78 -256)" fill="#5b7593"/>
  </g>
</svg>
