<svg xmlns="http://www.w3.org/2000/svg" width="12" height="12" viewBox="0 0 12 12">
  <path id="icon_information-bk" d="M85.6,185h.9v-3.6h-.9Zm.4-4.71a.487.487,0,0,0,.353-.138.457.457,0,0,0,.142-.342.5.5,0,0,0-.142-.363.5.5,0,0,0-.705,0,.5.5,0,0,0-.142.363.457.457,0,0,0,.142.342A.486.486,0,0,0,86,180.29ZM86,188a5.807,5.807,0,0,1-2.333-.473,6.061,6.061,0,0,1-3.2-3.2,6.005,6.005,0,0,1,0-4.67,6,6,0,0,1,1.29-1.9,6.159,6.159,0,0,1,1.91-1.283,6.005,6.005,0,0,1,4.67,0,6,6,0,0,1,3.185,3.188,6,6,0,0,1,0,4.669,6.128,6.128,0,0,1-1.283,1.906,6.057,6.057,0,0,1-1.9,1.29A5.8,5.8,0,0,1,86,188Zm0-.9a5.1,5.1,0,1,0-3.615-1.492A4.9,4.9,0,0,0,86.007,187.1ZM86,182Z" transform="translate(-80 -176)" fill="#333"/>
</svg>
