<svg xmlns="http://www.w3.org/2000/svg" xmlns:xlink="http://www.w3.org/1999/xlink" width="17" height="12" viewBox="0 0 17 12">
  <defs>
    <clipPath id="clip-path">
      <rect id="長方形_1717" data-name="長方形 1717" width="17" height="12" transform="translate(646.997 499)" fill="#fff" stroke="#707070" stroke-width="1"/>
    </clipPath>
  </defs>
  <g id="icon_unshared" transform="translate(-646.997 -499)" clip-path="url(#clip-path)">
    <path id="visibility_off_FILL0_wght400_GRAD0_opsz48_1_" data-name="visibility_off_FILL0_wght400_GRAD0_opsz48 (1)" d="M48.824,197.682l-.659-.659a1.486,1.486,0,0,0-.4-1.768,1.6,1.6,0,0,0-1.723-.36l-.659-.659a1.811,1.811,0,0,1,.569-.24,2.772,2.772,0,0,1,.644-.075,2.532,2.532,0,0,1,2.547,2.547,2.619,2.619,0,0,1-.082.652A1.978,1.978,0,0,1,48.824,197.682Zm1.933,1.933-.6-.6a7.026,7.026,0,0,0,1.281-1.206,4.814,4.814,0,0,0,.8-1.341,5.98,5.98,0,0,0-2.247-2.629,5.883,5.883,0,0,0-3.251-.966,7.2,7.2,0,0,0-1.288.12,4.777,4.777,0,0,0-1.034.285l-.689-.7a6.793,6.793,0,0,1,1.341-.419,7.409,7.409,0,0,1,1.6-.18,6.763,6.763,0,0,1,3.918,1.221,7.079,7.079,0,0,1,2.6,3.273,7.4,7.4,0,0,1-1,1.753A7.236,7.236,0,0,1,50.757,199.614ZM51.625,203l-2.517-2.472a5.821,5.821,0,0,1-1.184.322,7.923,7.923,0,0,1-1.333.112,6.869,6.869,0,0,1-3.97-1.221A7.156,7.156,0,0,1,40,196.468a6.8,6.8,0,0,1,.831-1.521,8.517,8.517,0,0,1,1.3-1.416l-1.888-1.888.629-.644L52.21,202.341Zm-8.884-8.839a5.513,5.513,0,0,0-1.071,1.064,4.931,4.931,0,0,0-.742,1.243,6,6,0,0,0,2.3,2.629,6.4,6.4,0,0,0,3.483.966,7.844,7.844,0,0,0,.974-.06,2.328,2.328,0,0,0,.719-.18l-.959-.959a1.568,1.568,0,0,1-.4.112,2.92,2.92,0,0,1-.449.037,2.477,2.477,0,0,1-1.8-.734,2.438,2.438,0,0,1-.749-1.813,2.73,2.73,0,0,1,.037-.449,1.834,1.834,0,0,1,.112-.4ZM47.311,196.288ZM45.573,197.157Z" transform="translate(608.997 308)" fill="#333"/>
  </g>
</svg>
