<svg xmlns="http://www.w3.org/2000/svg" xmlns:xlink="http://www.w3.org/1999/xlink" width="17" height="12" viewBox="0 0 17 12">
  <defs>
    <clipPath id="clip-path">
      <rect id="長方形_1719" data-name="長方形 1719" width="17" height="12" transform="translate(646.636 498)" fill="#fff" stroke="#707070" stroke-width="1"/>
    </clipPath>
  </defs>
  <g id="icon_open" transform="translate(-646.636 -498)" clip-path="url(#clip-path)">
    <g id="ノートのアイコン素材" transform="translate(646.636 421.638)">
      <path id="パス_376" data-name="パス 376" d="M16.232,77.279A.474.474,0,0,0,16,77.047a4.7,4.7,0,0,0-.736-.258,9.918,9.918,0,0,0-1.414-.258,15.146,15.146,0,0,0-1.7-.093,14.3,14.3,0,0,0-2.209.162,8.867,8.867,0,0,0-.905.189,5.247,5.247,0,0,0-.538.175,5.207,5.207,0,0,0-.539-.175,9.9,9.9,0,0,0-1.413-.258,15.162,15.162,0,0,0-1.7-.093A14.3,14.3,0,0,0,2.64,76.6a8.883,8.883,0,0,0-.9.189A4.726,4.726,0,0,0,1,77.047a.473.473,0,0,0-.231.232c-.359.09-.768.258-.768.556v8.647a1.506,1.506,0,0,0,1.506,1.506H7.575v.078a.3.3,0,0,0,.295.3H9.13a.3.3,0,0,0,.295-.3v-.078h6.069A1.506,1.506,0,0,0,17,86.482V77.835C17,77.537,16.591,77.369,16.232,77.279Zm-8.2,9-.066-.02A9.825,9.825,0,0,0,6.548,86a15.164,15.164,0,0,0-1.7-.093,14.363,14.363,0,0,0-2.209.162,8.887,8.887,0,0,0-.9.189l-.066.02V77.8q.143-.05.312-.1a8.856,8.856,0,0,1,1.275-.231,14.057,14.057,0,0,1,1.593-.087,13.452,13.452,0,0,1,2.061.15,7.846,7.846,0,0,1,.807.168q.17.046.312.1Zm7.3,0-.066-.02A9.846,9.846,0,0,0,13.851,86a15.147,15.147,0,0,0-1.7-.093,14.363,14.363,0,0,0-2.209.162,8.87,8.87,0,0,0-.905.189l-.066.02V77.8q.142-.05.312-.1a8.822,8.822,0,0,1,1.274-.231,14.066,14.066,0,0,1,1.593-.087,13.462,13.462,0,0,1,2.061.15,7.875,7.875,0,0,1,.807.168c.113.031.217.062.312.1Z" fill="#999"/>
    </g>
  </g>
</svg>
