<svg xmlns="http://www.w3.org/2000/svg" width="9" height="9" viewBox="0 0 9 9">
  <path id="history_FILL0_wght400_GRAD0_opsz48" d="M124.462,225a4.274,4.274,0,0,1-3.162-1.319,4.382,4.382,0,0,1-1.3-3.194h.75a3.67,3.67,0,0,0,1.075,2.663,3.545,3.545,0,0,0,2.637,1.1,3.635,3.635,0,0,0,2.688-1.113,3.7,3.7,0,0,0,1.1-2.7,3.491,3.491,0,0,0-1.113-2.619,3.723,3.723,0,0,0-2.675-1.069,3.4,3.4,0,0,0-1.594.387,4.347,4.347,0,0,0-1.294,1.025h1.313v.75h-2.613v-2.6h.75v1.325a4.757,4.757,0,0,1,1.544-1.2,4.252,4.252,0,0,1,1.894-.437,4.466,4.466,0,0,1,1.763.35,4.619,4.619,0,0,1,1.444.956,4.489,4.489,0,0,1,.975,1.419,4.309,4.309,0,0,1,.356,1.75,4.4,4.4,0,0,1-.356,1.762,4.524,4.524,0,0,1-.975,1.438,4.653,4.653,0,0,1-1.444.969A4.4,4.4,0,0,1,124.462,225Zm1.6-2.463-1.925-1.9v-2.675h.75v2.363L126.6,222Z" transform="translate(-120 -216)" fill="#333"/>
</svg>
