<svg xmlns="http://www.w3.org/2000/svg" xmlns:xlink="http://www.w3.org/1999/xlink" width="17" height="12" viewBox="0 0 17 12"><defs><style>.a{fill:#fff;stroke:#707070;}.b{clip-path:url(#a);}.c{fill:#333;}</style><clipPath id="a"><rect class="a" width="17" height="12" transform="translate(645.636 499)"/></clipPath></defs><g class="b" transform="translate(-645.636 -499)"><g transform="translate(645.637 401.922)"><path class="c" d="M4.9,158.46c0-.026-.011-.051-.011-.077v-.227a.956.956,0,0,1,.053-.315,6.041,6.041,0,0,0,.832-1.645,5.193,5.193,0,0,1-.558-2.147,4.8,4.8,0,0,1,.031-.517,2,2,0,0,0-1.466-.626,2.223,2.223,0,0,0-2.129,2.449,5.042,5.042,0,0,0,.97,2.486.983.983,0,0,1,.052.315v.227a.724.724,0,0,1-.422.658l-1.54.629a1.211,1.211,0,0,0-.684.881L0,160.89a.634.634,0,0,0,.632.683H3.151l.1-1.327.007-.036a2.171,2.171,0,0,1,1.228-1.583Z" transform="translate(0 -53.008)"/><path class="c" d="M343.861,160.551a1.209,1.209,0,0,0-.683-.881l-1.541-.629a.723.723,0,0,1-.421-.658v-.227a.955.955,0,0,1,.052-.315,5.044,5.044,0,0,0,.97-2.486,2.223,2.223,0,0,0-2.13-2.449,2,2,0,0,0-1.466.627,4.627,4.627,0,0,1,.032.516,5.2,5.2,0,0,1-.557,2.147,6.025,6.025,0,0,0,.833,1.646.984.984,0,0,1,.052.315v.227c0,.026-.009.051-.011.077l.382.156a2.184,2.184,0,0,1,1.257,1.593l.006.036.1,1.327h2.519a.634.634,0,0,0,.632-.683Z" transform="translate(-326.891 -53.008)"/><path class="c" d="M124.673,106.264l-1.865-.762a.876.876,0,0,1-.51-.8v-.275a1.155,1.155,0,0,1,.064-.382,6.1,6.1,0,0,0,1.173-3.008,2.6,2.6,0,1,0-5.153,0,6.1,6.1,0,0,0,1.174,3.008,1.181,1.181,0,0,1,.064.382v.275a.878.878,0,0,1-.511.8l-1.865.762a1.459,1.459,0,0,0-.827,1.066l-.1,1.235H125.6l-.095-1.235A1.463,1.463,0,0,0,124.673,106.264Z" transform="translate(-112.46 0)"/></g></g></svg>