<svg xmlns="http://www.w3.org/2000/svg" xmlns:xlink="http://www.w3.org/1999/xlink" width="14" height="16" viewBox="0 0 14 16">
  <defs>
    <clipPath id="clip-path">
      <rect id="長方形_1408" data-name="長方形 1408" width="14" height="16" transform="translate(436.856 288)" fill="#fff"/>
    </clipPath>
  </defs>
  <g id="icon_organization" transform="translate(-436.856 -288)" clip-path="url(#clip-path)">
    <g id="人物アイコン_チーム" data-name="人物アイコン　チーム" transform="translate(437.468 292.211)">
      <path id="パス_25" data-name="パス 25" d="M3.824,157.242c0-.021-.009-.04-.009-.06v-.177a.746.746,0,0,1,.041-.246,4.716,4.716,0,0,0,.65-1.284,4.054,4.054,0,0,1-.436-1.676,3.747,3.747,0,0,1,.024-.4,1.563,1.563,0,0,0-1.144-.488,1.736,1.736,0,0,0-1.662,1.912,3.937,3.937,0,0,0,.757,1.941.768.768,0,0,1,.041.246v.177a.565.565,0,0,1-.33.514l-1.2.491a.945.945,0,0,0-.534.688L0,159.139a.5.5,0,0,0,.494.533H2.46l.081-1.036.005-.028a1.7,1.7,0,0,1,.959-1.236Z" transform="translate(0.001 -151.485)" fill="#fff"/>
      <path id="パス_26" data-name="パス 26" d="M342.6,158.875a.944.944,0,0,0-.533-.688l-1.2-.491a.564.564,0,0,1-.329-.514v-.177a.746.746,0,0,1,.041-.246,3.938,3.938,0,0,0,.757-1.941,1.736,1.736,0,0,0-1.663-1.912,1.563,1.563,0,0,0-1.144.489,3.623,3.623,0,0,1,.025.4,4.06,4.06,0,0,1-.435,1.676,4.7,4.7,0,0,0,.65,1.285.768.768,0,0,1,.041.246v.177c0,.021-.007.04-.009.06l.3.122a1.705,1.705,0,0,1,.981,1.244l0,.028.08,1.036h1.966a.5.5,0,0,0,.493-.533Z" transform="translate(-329.351 -151.485)" fill="#fff"/>
      <path id="パス_27" data-name="パス 27" d="M122.842,104.469l-1.456-.6a.684.684,0,0,1-.4-.621v-.215a.9.9,0,0,1,.05-.3,4.763,4.763,0,0,0,.915-2.348,2.031,2.031,0,1,0-4.023,0,4.761,4.761,0,0,0,.916,2.348.922.922,0,0,1,.05.3v.215a.686.686,0,0,1-.4.621l-1.456.6a1.139,1.139,0,0,0-.646.832l-.075.964h7.241l-.074-.964A1.143,1.143,0,0,0,122.842,104.469Z" transform="translate(-113.306 -98.078)" fill="#fff"/>
    </g>
  </g>
</svg>
