<svg xmlns="http://www.w3.org/2000/svg" width="24" height="24" viewBox="0 0 24 24"><defs><style>.a{fill:#fff;}.b{fill:#999;}.c{fill:#5b7593;}</style></defs><g transform="translate(-797 -374)"><rect class="a" width="24" height="24" rx="4" transform="translate(797 374)"/><path class="b" d="M4,1A3,3,0,0,0,1,4V20a3,3,0,0,0,3,3H20a3,3,0,0,0,3-3V4a3,3,0,0,0-3-3H4M4,0H20a4,4,0,0,1,4,4V20a4,4,0,0,1-4,4H4a4,4,0,0,1-4-4V4A4,4,0,0,1,4,0Z" transform="translate(797 374)"/><path class="c" d="M207.923,315l-.923-.923L212.077,309,207,303.923l.923-.923L213,308.077,218.077,303l.923.923L213.923,309,219,314.077l-.923.923L213,309.923Z" transform="translate(596 77)"/></g></svg>