<svg xmlns="http://www.w3.org/2000/svg" xmlns:xlink="http://www.w3.org/1999/xlink" width="14" height="16" viewBox="0 0 14 16">
  <defs>
    <clipPath id="clip-path">
      <rect id="長方形_1408" data-name="長方形 1408" width="14" height="16" transform="translate(437 287.58)" fill="#fff"/>
    </clipPath>
  </defs>
  <g id="icon_data" transform="translate(-437 -287.58)" clip-path="url(#clip-path)">
    <g id="データベースアイコン1" transform="translate(437.572 288.109)">
      <path id="パス_22" data-name="パス 22" d="M59.23,2.461a2.728,2.728,0,0,0-.856-1.043A6.4,6.4,0,0,0,56.14.38,11.572,11.572,0,0,0,53.128,0a10.318,10.318,0,0,0-4.3.849,4.331,4.331,0,0,0-1.385.979,2.372,2.372,0,0,0-.414.633,1.825,1.825,0,0,0-.154.727v8.941a1.824,1.824,0,0,0,.154.727,2.731,2.731,0,0,0,.856,1.043,6.4,6.4,0,0,0,2.234,1.038,11.584,11.584,0,0,0,3.012.38,10.317,10.317,0,0,0,4.3-.849,4.327,4.327,0,0,0,1.385-.979,2.364,2.364,0,0,0,.414-.633,1.823,1.823,0,0,0,.154-.727V3.187A1.824,1.824,0,0,0,59.23,2.461Zm-.709,9.668a.959.959,0,0,1-.083.384,1.885,1.885,0,0,1-.594.7,5.57,5.57,0,0,1-1.93.886,10.733,10.733,0,0,1-2.786.35,9.475,9.475,0,0,1-3.934-.766,3.487,3.487,0,0,1-1.111-.774,1.5,1.5,0,0,1-.265-.4.959.959,0,0,1-.083-.384V10.652a5.52,5.52,0,0,0,2.038,1.09,11.169,11.169,0,0,0,3.355.486,10.214,10.214,0,0,0,4.257-.838,4.566,4.566,0,0,0,1.136-.742v1.481Zm0-2.52a1.651,1.651,0,0,1-.267.4,4.5,4.5,0,0,1-1.967,1.12,10.527,10.527,0,0,1-3.158.455,9.584,9.584,0,0,1-3.98-.776,3.592,3.592,0,0,1-1.146-.8,1.655,1.655,0,0,1-.267-.4V7.672a5.52,5.52,0,0,0,2.038,1.09,11.179,11.179,0,0,0,3.355.486,10.214,10.214,0,0,0,4.257-.838,4.565,4.565,0,0,0,1.136-.742V9.608Zm0-2.98a1.645,1.645,0,0,1-.267.4,4.5,4.5,0,0,1-1.967,1.12,10.525,10.525,0,0,1-3.158.455,9.588,9.588,0,0,1-3.98-.776A3.593,3.593,0,0,1,48,7.025a1.645,1.645,0,0,1-.267-.4V4.691a5.52,5.52,0,0,0,2.038,1.09,11.161,11.161,0,0,0,3.355.486,10.21,10.21,0,0,0,4.257-.838,4.565,4.565,0,0,0,1.136-.742V6.628Zm0-2.98a1.645,1.645,0,0,1-.267.4,4.5,4.5,0,0,1-1.967,1.12,10.527,10.527,0,0,1-3.158.455,9.584,9.584,0,0,1-3.98-.776A3.6,3.6,0,0,1,48,4.045a1.65,1.65,0,0,1-.267-.4v-.46a.958.958,0,0,1,.083-.384,1.885,1.885,0,0,1,.594-.7,5.566,5.566,0,0,1,1.93-.886,10.72,10.72,0,0,1,2.786-.35,9.476,9.476,0,0,1,3.934.766,3.482,3.482,0,0,1,1.111.774,1.5,1.5,0,0,1,.265.4.959.959,0,0,1,.083.384Z" transform="translate(-46.872 0)" fill="#fff"/>
    </g>
  </g>
</svg>
