<svg xmlns="http://www.w3.org/2000/svg" xmlns:xlink="http://www.w3.org/1999/xlink" width="16" height="12" viewBox="0 0 16 12">
  <defs>
    <clipPath id="clip-path">
      <rect id="長方形_1744" data-name="長方形 1744" width="16" height="12" transform="translate(77 5)" fill="#fff" stroke="#707070" stroke-width="1"/>
    </clipPath>
  </defs>
  <g id="icon_summary" transform="translate(-77 -5)" clip-path="url(#clip-path)">
    <path id="list_FILL0_wght400_GRAD0_opsz48" d="M120.6,384a.572.572,0,0,1-.426-.173.59.59,0,0,1-.17-.43.572.572,0,0,1,.174-.426.59.59,0,0,1,.43-.17.572.572,0,0,1,.426.174.59.59,0,0,1,.17.43.572.572,0,0,1-.174.427A.59.59,0,0,1,120.6,384Zm0-3.4a.572.572,0,0,1-.426-.173A.59.59,0,0,1,120,380a.572.572,0,0,1,.174-.427.59.59,0,0,1,.43-.17.572.572,0,0,1,.426.173.59.59,0,0,1,.17.43.572.572,0,0,1-.174.426A.59.59,0,0,1,120.6,380.6Zm0-3.4a.572.572,0,0,1-.426-.174.59.59,0,0,1-.17-.43.572.572,0,0,1,.174-.427.59.59,0,0,1,.43-.17.572.572,0,0,1,.426.174.59.59,0,0,1,.17.43.572.572,0,0,1-.174.426A.59.59,0,0,1,120.6,377.2Zm2.8,6.8v-1.2h11V384Zm0-3.4v-1.2h11v1.2Zm0-3.4V376h11v1.2Z" transform="translate(-42.513 -369)" fill="#5b7593"/>
  </g>
</svg>
