<svg xmlns="http://www.w3.org/2000/svg" width="14" height="14" viewBox="0 0 14 14">
  <path id="language_FILL0_wght400_GRAD0_opsz48" d="M87,190a6.86,6.86,0,0,1-2.747-.551,7.069,7.069,0,0,1-2.223-1.5,6.924,6.924,0,0,1-1.488-2.231A7.019,7.019,0,0,1,80,182.965a6.892,6.892,0,0,1,.542-2.739,6.975,6.975,0,0,1,1.488-2.214,6.832,6.832,0,0,1,2.223-1.479,7.338,7.338,0,0,1,5.495,0,6.832,6.832,0,0,1,2.223,1.479,6.975,6.975,0,0,1,1.487,2.214A6.892,6.892,0,0,1,94,182.965a7.019,7.019,0,0,1-.543,2.756,6.924,6.924,0,0,1-1.487,2.231,7.069,7.069,0,0,1-2.223,1.5A6.86,6.86,0,0,1,87,190Zm0-1.015a5.825,5.825,0,0,0,1.024-1.444,8.692,8.692,0,0,0,.674-1.934H85.32a8.875,8.875,0,0,0,.656,1.89A5.964,5.964,0,0,0,87,188.985Zm-1.488-.21a8.367,8.367,0,0,1-.753-1.435,10.484,10.484,0,0,1-.525-1.732H81.61a6.276,6.276,0,0,0,1.54,1.951A7.689,7.689,0,0,0,85.512,188.775Zm2.993-.018a7.006,7.006,0,0,0,2.266-1.207,6.268,6.268,0,0,0,1.619-1.943H89.783a12.679,12.679,0,0,1-.534,1.715A7.944,7.944,0,0,1,88.5,188.757Zm-7.245-4.2h2.782q-.052-.473-.061-.849t-.009-.744q0-.438.018-.779t.07-.761h-2.8a5.1,5.1,0,0,0-.166.752,6.133,6.133,0,0,0-.044.788,6.78,6.78,0,0,0,.044.814A4.932,4.932,0,0,0,81.26,184.557Zm3.868,0H88.89q.07-.542.088-.884t.017-.709q0-.35-.017-.674t-.088-.866H85.128q-.07.542-.088.866t-.018.674q0,.367.018.709T85.128,184.557Zm4.813,0h2.8a4.933,4.933,0,0,0,.166-.779,6.78,6.78,0,0,0,.044-.814,6.133,6.133,0,0,0-.044-.788,5.1,5.1,0,0,0-.166-.752H89.957q.053.612.07.936t.018.6q0,.385-.026.726T89.94,184.557Zm-.175-4.182H92.39a5.67,5.67,0,0,0-1.584-2.012,6.035,6.035,0,0,0-2.319-1.138,7.628,7.628,0,0,1,.744,1.4A11.381,11.381,0,0,1,89.765,180.375Zm-4.445,0h3.395a6.825,6.825,0,0,0-.647-1.794A7.159,7.159,0,0,0,87,177.05a3.848,3.848,0,0,0-.945,1.242A11.3,11.3,0,0,0,85.32,180.375Zm-3.71,0h2.643a9.85,9.85,0,0,1,.49-1.689,8.309,8.309,0,0,1,.752-1.444,5.773,5.773,0,0,0-3.885,3.133Z" transform="translate(-80 -176)" fill="#fff"/>
</svg>
