<svg id="icon-export" xmlns="http://www.w3.org/2000/svg" width="22" height="21.945" viewBox="0 0 22 21.945">
  <path id="export_notes_FILL0_wght400_GRAD0_opsz48" d="M134.859,235.336l3.213-3.213v2.719h.824v-4.12h-4.12v.824H137.5l-3.213,3.213Zm-13.211.439A1.653,1.653,0,0,1,120,234.127V217.648A1.653,1.653,0,0,1,121.648,216h16.479a1.653,1.653,0,0,1,1.648,1.648v9.036a4.272,4.272,0,0,0-.81-.357,7.558,7.558,0,0,0-.838-.22v-8.459H121.648v16.479h8.487q.11.439.248.856a5.659,5.659,0,0,0,.329.792Zm0-2.939v0Zm2.747-1.456h5.8q.11-.439.247-.851a4.418,4.418,0,0,1,.357-.8h-6.4Zm0-4.669h9.448a6.2,6.2,0,0,1,.742-.316q.357-.124.8-.233v-1.1H124.395Zm0-4.669h10.986v-1.648H124.395Zm12.428,15.9a5.181,5.181,0,0,1-5.15-5.136,5.017,5.017,0,0,1,1.51-3.673,5.154,5.154,0,1,1,3.639,8.809Z" transform="translate(-120 -216)" fill="#fff"/>
</svg>
