<svg xmlns="http://www.w3.org/2000/svg" width="12" height="12" viewBox="0 0 12 12">
  <path id="preview_FILL0_wght400_GRAD0_opsz48" d="M121,228a1,1,0,0,1-1-1V217a1,1,0,0,1,1-1h10a1,1,0,0,1,1,1v10a1,1,0,0,1-1,1Zm0-1h10v-8.667H121Zm5-1.75a4.119,4.119,0,0,1-2.384-.719,4.2,4.2,0,0,1-1.533-1.867,4.186,4.186,0,0,1,1.533-1.864,4.316,4.316,0,0,1,4.767,0,4.2,4.2,0,0,1,1.533,1.867,4.185,4.185,0,0,1-1.533,1.864A4.126,4.126,0,0,1,126,225.25Zm0-.833a3.423,3.423,0,0,0,1.749-.464A3.287,3.287,0,0,0,129,222.667a3.286,3.286,0,0,0-1.251-1.286,3.531,3.531,0,0,0-3.5,0A3.287,3.287,0,0,0,123,222.667a3.287,3.287,0,0,0,1.251,1.286A3.423,3.423,0,0,0,126,224.417ZM126,222.667Zm0,.833a.8.8,0,0,0,.59-.244.809.809,0,0,0,.242-.592.8.8,0,0,0-.244-.59.809.809,0,0,0-.592-.242.8.8,0,0,0-.59.244.809.809,0,0,0-.242.592.8.8,0,0,0,.244.59A.809.809,0,0,0,126,223.5Z" transform="translate(-120 -216)" fill="#333"/>
</svg>
