<svg xmlns="http://www.w3.org/2000/svg" width="21" height="15" viewBox="0 0 21 15">
  <g id="icon_ranking" transform="translate(0)">
    <g id="合体_1" data-name="合体 1" transform="translate(0)" fill="none">
      <path d="M14.437,15H0V4.09H6.562V0h7.875V6.455H21V15Z" stroke="none"/>
      <path d="M 20 14 L 20 7.454669952392578 L 13.4370698928833 7.454669952392578 L 13.4370698928833 1 L 7.562009811401367 1 L 7.562009811401367 5.090419769287109 L 1 5.090419769287109 L 1 14 L 20 14 M 21 15 L 0 15 L 0 4.090419769287109 L 6.562009811401367 4.090419769287109 L 6.562009811401367 -8.881784197001252e-16 L 14.4370698928833 -8.881784197001252e-16 L 14.4370698928833 6.454669952392578 L 21 6.454669952392578 L 21 15 Z" stroke="none" fill="#fff"/>
    </g>
    <path id="パス_380" data-name="パス 380" d="M.492,0h2.67V-.714H2.328V-4.44H1.674a2.88,2.88,0,0,1-1.032.372v.546h.8V-.714H.492Z" transform="translate(8.8 7)" fill="#fff"/>
    <path id="パス_379" data-name="パス 379" d="M.258,0H3.234V-.744H2.268c-.2,0-.5.024-.72.048a4.005,4.005,0,0,0,1.476-2.46,1.3,1.3,0,0,0-1.4-1.368,1.8,1.8,0,0,0-1.41.672l.48.48a1.15,1.15,0,0,1,.816-.456.637.637,0,0,1,.666.72c0,.684-.714,1.518-1.92,2.6Z" transform="translate(3 12)" fill="#fff"/>
    <path id="パス_378" data-name="パス 378" d="M1.644.084A1.387,1.387,0,0,0,3.2-1.206,1.11,1.11,0,0,0,2.316-2.3v-.03A1.052,1.052,0,0,0,3.06-3.342c0-.762-.582-1.182-1.44-1.182a1.97,1.97,0,0,0-1.332.546l.45.54a1.267,1.267,0,0,1,.84-.4.531.531,0,0,1,.594.558c0,.4-.264.678-1.08.678v.636c.966,0,1.224.27,1.224.708,0,.4-.306.618-.756.618a1.41,1.41,0,0,1-.99-.456L.156-.534A1.887,1.887,0,0,0,1.644.084Z" transform="translate(15 13)" fill="#fff"/>
  </g>
</svg>
