<svg xmlns="http://www.w3.org/2000/svg" xmlns:xlink="http://www.w3.org/1999/xlink" width="14" height="16" viewBox="0 0 14 16">
  <defs>
    <clipPath id="clip-path">
      <rect id="長方形_1408" data-name="長方形 1408" width="14" height="16" transform="translate(437 288)" fill="#fff"/>
    </clipPath>
  </defs>
  <g id="icon_file" transform="translate(-437 -288)" clip-path="url(#clip-path)">
    <g id="線画のフォルダアイコン_2" data-name="線画のフォルダアイコン 2" transform="translate(437.465 290.56)">
      <path id="パス_24" data-name="パス 24" d="M12.679,40.714a1.382,1.382,0,0,0-.978-.4H5.437a.3.3,0,0,1-.208-.083h0L4.129,39.2a1.384,1.384,0,0,0-.946-.374h-1.8A1.383,1.383,0,0,0,0,40.2v8.334a1.383,1.383,0,0,0,1.383,1.383H11.7a1.383,1.383,0,0,0,1.383-1.383V41.693A1.382,1.382,0,0,0,12.679,40.714Zm-.674,7.824a.3.3,0,0,1-.3.3H1.383a.3.3,0,0,1-.3-.3V44.032H12.005v4.506Zm0-5.369H1.079V40.2a.3.3,0,0,1,.3-.3h1.8a.3.3,0,0,1,.208.082l1.1,1.032h0a1.385,1.385,0,0,0,.946.374H11.7a.3.3,0,0,1,.3.3v1.476Z" transform="translate(0 -38.821)" fill="#fff"/>
    </g>
  </g>
</svg>
