<svg xmlns="http://www.w3.org/2000/svg" width="20" height="20" viewBox="0 0 20 20"><path d="M90,196a9.8,9.8,0,0,1-3.925-.788,10.1,10.1,0,0,1-3.175-2.138,9.891,9.891,0,0,1-2.125-3.187A10.027,10.027,0,0,1,80,185.95a9.846,9.846,0,0,1,.775-3.913,9.964,9.964,0,0,1,2.125-3.162,9.759,9.759,0,0,1,3.175-2.113,10.484,10.484,0,0,1,7.85,0,9.759,9.759,0,0,1,3.175,2.113,9.964,9.964,0,0,1,2.125,3.162A9.846,9.846,0,0,1,100,185.95a10.027,10.027,0,0,1-.775,3.938,9.891,9.891,0,0,1-2.125,3.187,10.1,10.1,0,0,1-3.175,2.138A9.8,9.8,0,0,1,90,196Zm0-1.45a8.322,8.322,0,0,0,1.463-2.063,12.417,12.417,0,0,0,.962-2.763H87.6a12.678,12.678,0,0,0,.937,2.7A8.52,8.52,0,0,0,90,194.55Zm-2.125-.3A11.953,11.953,0,0,1,86.8,192.2a14.975,14.975,0,0,1-.75-2.475H82.3a8.966,8.966,0,0,0,2.2,2.788A10.984,10.984,0,0,0,87.875,194.25Zm4.275-.025a10.01,10.01,0,0,0,3.238-1.725,8.954,8.954,0,0,0,2.312-2.775H93.975a18.113,18.113,0,0,1-.763,2.45A11.35,11.35,0,0,1,92.15,194.225Zm-10.35-6h3.975q-.075-.675-.087-1.213t-.013-1.062q0-.625.025-1.112t.1-1.088h-4a7.29,7.29,0,0,0-.238,1.075,8.76,8.76,0,0,0-.062,1.125,9.685,9.685,0,0,0,.063,1.162A7.048,7.048,0,0,0,81.8,188.225Zm5.525,0H92.7q.1-.775.125-1.262t.025-1.013q0-.5-.025-.962T92.7,183.75H87.325q-.1.775-.125,1.238t-.025.962q0,.525.025,1.013T87.325,188.225Zm6.875,0h4a7.049,7.049,0,0,0,.237-1.113,9.685,9.685,0,0,0,.063-1.162,8.76,8.76,0,0,0-.062-1.125,7.291,7.291,0,0,0-.237-1.075H94.225q.075.875.1,1.338t.025.862q0,.55-.038,1.038T94.2,188.225Zm-.25-5.975H97.7a8.1,8.1,0,0,0-2.262-2.875,8.621,8.621,0,0,0-3.313-1.625,10.9,10.9,0,0,1,1.063,2A16.257,16.257,0,0,1,93.95,182.25Zm-6.35,0h4.85a9.751,9.751,0,0,0-.925-2.563A10.228,10.228,0,0,0,90,177.5a5.5,5.5,0,0,0-1.35,1.775A16.141,16.141,0,0,0,87.6,182.25Zm-5.3,0h3.775a14.071,14.071,0,0,1,.7-2.412,11.869,11.869,0,0,1,1.075-2.063,8.248,8.248,0,0,0-5.55,4.475Z" transform="translate(-80 -176)"/></svg>