<svg xmlns="http://www.w3.org/2000/svg" width="20" height="20" viewBox="0 0 20 20"><defs><style>.a{fill:#333;}.b{fill:#fff;}</style></defs><g transform="translate(0 -1)"><rect class="a" width="20" height="20" rx="2" transform="translate(0 1)"/><path class="b" d="M5.278-1.148C3.57-1.148,2.464-2.7,2.464-5.194c0-2.422,1.106-3.892,2.814-3.892s2.828,1.47,2.828,3.892C8.106-2.7,6.986-1.148,5.278-1.148ZM8.512,2.674a4.089,4.089,0,0,0,1.582-.266L9.786,1.19a3.78,3.78,0,0,1-1.092.154A2.638,2.638,0,0,1,6.244.084C8.358-.364,9.772-2.3,9.772-5.194c0-3.318-1.848-5.306-4.494-5.306S.8-8.512.8-5.194C.8-2.212,2.282-.252,4.508.126A4.158,4.158,0,0,0,8.512,2.674Z" transform="translate(4 16)"/></g></svg>