<svg xmlns="http://www.w3.org/2000/svg" width="21" height="21" viewBox="0 0 21 21">
  <path id="icon_search-results" d="M125.25,232.158a.9.9,0,1,0-.613-.262A.84.84,0,0,0,125.25,232.158Zm0-4.783a.9.9,0,1,0-.613-.263A.839.839,0,0,0,125.25,227.375Zm0-4.783a.9.9,0,1,0-.613-.263A.84.84,0,0,0,125.25,222.592Zm3.85,9.567h7.117v-1.75H129.1Zm0-4.783h7.117v-1.75H129.1Zm0-4.783h7.117v-1.75H129.1ZM121.75,237a1.794,1.794,0,0,1-1.75-1.75v-17.5a1.794,1.794,0,0,1,1.75-1.75h17.5a1.794,1.794,0,0,1,1.75,1.75v17.5a1.794,1.794,0,0,1-1.75,1.75Zm0-1.75h17.5v-17.5h-17.5Zm0-17.5v0Z" transform="translate(-120 -216)" fill="#fff"/>
</svg>
