<svg xmlns="http://www.w3.org/2000/svg" xmlns:xlink="http://www.w3.org/1999/xlink" width="22" height="16" viewBox="0 0 22 16">
  <defs>
    <clipPath id="clip-path">
      <rect id="長方形_1470" data-name="長方形 1470" width="22" height="16" transform="translate(0 -1)" fill="#5b7593" stroke="#707070" stroke-width="1"/>
    </clipPath>
  </defs>
  <g id="icon_filter" transform="translate(0 1)" clip-path="url(#clip-path)">
    <path id="filter_alt_FILL0_wght400_GRAD0_opsz48" d="M159.115,270a.859.859,0,0,1-.875-.875v-5.25l-5.228-6.672a.662.662,0,0,1-.087-.788A.719.719,0,0,1,153.6,256h12.775a.719.719,0,0,1,.678.416.662.662,0,0,1-.088.788l-5.228,6.672v5.25a.859.859,0,0,1-.875.875Zm.875-6.038,5.25-6.65h-10.5ZM159.99,263.962Z" transform="translate(-148.99 -255.5)" fill="#5b7593"/>
  </g>
</svg>
