<svg xmlns="http://www.w3.org/2000/svg" xmlns:xlink="http://www.w3.org/1999/xlink" width="164.326" height="30.721" viewBox="0 0 164.326 30.721"><defs><style>.a{fill:#fff;stroke:#707070;}.b,.d{fill:#4823a1;}.c{clip-path:url(#a);}.d{font-size:44px;font-family:FuturaPT-Bold, Futura PT;font-weight:700;}</style><clipPath id="a"><rect class="a" width="36" height="22" transform="translate(-0.055 -0.283)"/></clipPath></defs><g transform="translate(-7493.76 265.685)"><g transform="translate(7596.152 -265.685)"><path class="b" d="M61.934,147.427a40.382,40.382,0,0,0-7.741-9.268,37.683,37.683,0,0,0-9.637-6.35,33.052,33.052,0,0,0-27.178,0,39.352,39.352,0,0,0-12.983,9.707A37.009,37.009,0,0,0,0,147.427l3.548,1.994,1.654.937,0-.005v0a35.214,35.214,0,0,1,6.833-8.023,31.458,31.458,0,0,1,8.017-5.176,27.084,27.084,0,0,1,22.046.1,33.425,33.425,0,0,1,10.985,8.241,36.046,36.046,0,0,1,2.78,3.52c.305.442.53.794.674,1.027.072.117.123.2.156.256l.03.054.005.008,1.174-.667-1.177.662Z" transform="translate(0 -128.886)"/></g><path class="b" d="M9.328,0l2.508-16.9L18.612,0h3.036l7.084-16.9L30.888,0H38.5L34.1-29.348H26.488L20.2-13.684l-5.94-15.664H6.732L1.76,0ZM43.34-29.348V0h7.612V-29.348ZM69.344,0c3.608,0,6.38-1.144,7.964-2.772a7.965,7.965,0,0,0,2.156-5.764,7.382,7.382,0,0,0-1.98-5.368,7.3,7.3,0,0,0-4-1.76,4.621,4.621,0,0,0,2.376-2.288,7.607,7.607,0,0,0,.836-3.608,7.94,7.94,0,0,0-1.8-5.5c-1.8-1.98-4.312-2.288-6.424-2.288H57.112V0Zm-4.62-23.5h1.408a4.04,4.04,0,0,1,2.9.88,3.017,3.017,0,0,1,.7,1.98,2.843,2.843,0,0,1-.7,1.936,4.021,4.021,0,0,1-2.9.924H64.724Zm0,11.4h1.584c1.892,0,3.784.044,4.708.968a2.983,2.983,0,0,1,.748,2.112,2.855,2.855,0,0,1-.616,1.892c-.836.968-2.6,1.188-4.708,1.188H64.724ZM89.1,0h7.656V-14.08l10.956-15.268h-9.24L93.148-21.34,87.6-29.348H78.5L89.1-14.08Z" transform="translate(7492 -235.964)"/><g class="c" transform="translate(7608.055 -256.682)"><text class="d" transform="translate(-0.055 30.717)"><tspan x="0" y="0">O</tspan></text></g></g></svg>