<svg xmlns="http://www.w3.org/2000/svg" width="179" height="30" viewBox="0 0 179 30">
  <g id="icon_index-tree" transform="translate(-20 -369)">
    <g id="パス_377" data-name="パス 377" transform="translate(20 369)" fill="none">
      <path d="M0,0H169l10,6V24l-10,6H0Z" stroke="none"/>
      <path d="M 1 1 L 1 29 L 168.7229919433594 29 L 178 23.43379974365234 L 178 6.566200256347656 L 168.7229919433594 1 L 1 1 M 0 0 L 169 0 L 179 6 L 179 24 L 169 30 L 0 30 L 0 0 Z" stroke="none" fill="#fff"/>
    </g>
    <path id="パス_382" data-name="パス 382" d="M8.68-6.944a22.875,22.875,0,0,0,3.71-3.01l-1.5-1.358A14.776,14.776,0,0,1,7.238-8.148,21.508,21.508,0,0,1,.868-5.614L1.876-3.906a27.372,27.372,0,0,0,4.816-1.9v4.592a15.679,15.679,0,0,1-.1,1.834H8.806A9.625,9.625,0,0,1,8.68-1.218Zm8.694-3.7-1.316,1.4a29.109,29.109,0,0,1,3.5,3.024l1.428-1.47A29.4,29.4,0,0,0,17.374-10.64Zm-1.75,9.324L16.8.532a15.162,15.162,0,0,0,5.194-1.974,14.887,14.887,0,0,0,5.18-5.18L26.082-8.6a13.275,13.275,0,0,1-5.1,5.446A14.43,14.43,0,0,1,15.624-1.316Zm26.208-8.946a18.624,18.624,0,0,0-1.12-1.9l-1.106.462a16.517,16.517,0,0,1,1.12,1.932Zm-1.666.644c-.266-.518-.756-1.4-1.106-1.918l-1.12.462a19.241,19.241,0,0,1,1.106,1.946Zm-3.458.812c.49,0,1.036.014,1.512.042V-10.57a10.989,10.989,0,0,1-1.512.112H32.13a10.475,10.475,0,0,1-1.5-.112v1.806c.42-.028,1.022-.042,1.5-.042ZM30.352-6.9a10.659,10.659,0,0,1-1.344-.084v1.834c.392-.028.938-.056,1.344-.056H34.2a6.016,6.016,0,0,1-.868,3.094,5.717,5.717,0,0,1-2.534,2l1.638,1.19A6.718,6.718,0,0,0,35.252-1.61a8.882,8.882,0,0,0,.9-3.6h3.374c.392,0,.924.014,1.274.042v-1.82a10.588,10.588,0,0,1-1.274.084ZM49.07-8.33,47.4-7.784a23.319,23.319,0,0,1,1.134,3.108l1.68-.588C50.022-5.908,49.336-7.728,49.07-8.33Zm3.192.392a9.435,9.435,0,0,1-1.778,4.8A9.42,9.42,0,0,1,45.836-.21l1.47,1.5A10.933,10.933,0,0,0,52-2.184a11.289,11.289,0,0,0,1.9-4.1c.084-.28.168-.574.336-1.022Zm-6.44.35-1.68.6a28.277,28.277,0,0,1,1.274,3.234L47.124-4.4C46.844-5.18,46.172-6.874,45.822-7.588Zm21.336-2a4.489,4.489,0,0,1-1.218.168H63.126l.042-.07c.168-.308.518-.938.854-1.428l-2.044-.672a6.736,6.736,0,0,1-.63,1.47A12.327,12.327,0,0,1,56.98-5.614l1.568,1.162A15.958,15.958,0,0,0,62.076-7.84H66.01a9.952,9.952,0,0,1-1.988,3.822A11.157,11.157,0,0,1,58.38-.56L60.032.924a13.19,13.19,0,0,0,5.656-3.948A14.607,14.607,0,0,0,68.124-7.7a5.605,5.605,0,0,1,.462-1.008Zm12.95-.756a5.054,5.054,0,0,1-1.456.182H73.724a15.641,15.641,0,0,1-1.652-.1v1.988c.294-.014,1.064-.1,1.652-.1H78.47a10.848,10.848,0,0,1-2.086,3.43,15.861,15.861,0,0,1-5.74,4.018L72.086.588A18.441,18.441,0,0,0,77.35-3.346,31.925,31.925,0,0,1,80.878.616l1.6-1.386a39.357,39.357,0,0,0-3.906-4,20.584,20.584,0,0,0,2.2-3.85,6.613,6.613,0,0,1,.49-.868Zm10.094-.56-1.75.574a35.82,35.82,0,0,1,1.456,3.794l1.764-.616A33.839,33.839,0,0,0,90.2-10.906Zm4.3.518a12.768,12.768,0,0,1-2.156,5.88A11.231,11.231,0,0,1,86.814-.9L88.382.672a12.678,12.678,0,0,0,5.5-4.1,15.993,15.993,0,0,0,2.352-5.264,9.788,9.788,0,0,1,.35-1.092Zm-8.19.35-1.792.616a34.919,34.919,0,0,1,1.61,3.962l1.806-.658C87.612-7.07,86.744-9.156,86.31-10.038Zm14-.7a9.522,9.522,0,0,1,.056,1.064v4.718c0,.42-.056.966-.07,1.232h2.072c-.028-.322-.042-.868-.042-1.218V-9.674c0-.448.014-.756.042-1.064Zm6.44-.126a9.876,9.876,0,0,1,.084,1.4V-6.8c0,2.184-.182,3.234-1.134,4.284a6.552,6.552,0,0,1-3.43,1.764l1.47,1.54a8.133,8.133,0,0,0,3.4-2.03c1.036-1.148,1.624-2.436,1.624-5.446V-9.464c0-.56.028-1.008.056-1.4Zm6.118,6.58c.518-.042,1.456-.07,2.254-.07h7.518c.588,0,1.3.056,1.638.07v-2.2c-.364.028-.994.084-1.638.084h-7.518c-.728,0-1.75-.042-2.254-.084Z" transform="translate(60 390)" fill="#fff"/>
    <g id="icon_index" transform="translate(-193 50)">
      <line id="線_6" data-name="線 6" y2="17" transform="translate(225.5 325)" fill="none" stroke="#fff" stroke-width="1"/>
      <path id="パス_15" data-name="パス 15" d="M10,0C7.016,6.309,0,6.5,0,6.5" transform="translate(225.5 335.5)" fill="none" stroke="#fff" stroke-width="1"/>
      <g id="楕円形_6" data-name="楕円形 6" transform="translate(223 323)" fill="#fff" stroke="#fff" stroke-width="1">
        <circle cx="2.5" cy="2.5" r="2.5" stroke="none"/>
        <circle cx="2.5" cy="2.5" r="2" fill="none"/>
      </g>
      <g id="楕円形_7" data-name="楕円形 7" transform="translate(223 340)" fill="#fff" stroke="#fff" stroke-width="1">
        <circle cx="2.5" cy="2.5" r="2.5" stroke="none"/>
        <circle cx="2.5" cy="2.5" r="2" fill="none"/>
      </g>
      <g id="楕円形_8" data-name="楕円形 8" transform="translate(233 333)" fill="#fff" stroke="#fff" stroke-width="1">
        <circle cx="2.5" cy="2.5" r="2.5" stroke="none"/>
        <circle cx="2.5" cy="2.5" r="2" fill="none"/>
      </g>
    </g>
  </g>
</svg>
