<svg xmlns="http://www.w3.org/2000/svg" width="96" height="30" viewBox="0 0 96 30"><defs><style>.a{fill:#4823a1;}.b{fill:#fff;}</style></defs><g transform="translate(-1136 -15)"><path class="a" d="M4,0H92a4,4,0,0,1,4,4V26a4,4,0,0,1-4,4H4a4,4,0,0,1-4-4V4A4,4,0,0,1,4,0Z" transform="translate(1136 15)"/><path class="b" d="M2.044-9.59c.028.336.028.77.028,1.092V-1.61c0,.49-.028,1.526-.042,1.708h1.2C3.22-.014,3.22-.35,3.206-.714H10.85c0,.378-.014.714-.014.812h1.2c-.014-.154-.028-1.246-.028-1.694V-8.5c0-.35,0-.742.028-1.092-.42.028-.924.028-1.232.028H3.29C2.968-9.562,2.59-9.576,2.044-9.59ZM3.206-8.456h7.658v6.65H3.206ZM24.71-11.2l-.742.322A15.835,15.835,0,0,1,25.1-8.946l.756-.336A19.842,19.842,0,0,0,24.71-11.2Zm1.54-.56-.742.322A14.55,14.55,0,0,1,26.67-9.52l.756-.336A20.032,20.032,0,0,0,26.25-11.76Zm-5.306,1.232-1.288-.434a5.192,5.192,0,0,1-.434,1.12,11.726,11.726,0,0,1-4.4,4.732l.966.714A13.509,13.509,0,0,0,19.348-7.84h4.718A11.368,11.368,0,0,1,21.84-3.472,11.212,11.212,0,0,1,16.24.042l1.022.924a12.462,12.462,0,0,0,5.572-3.808,13.694,13.694,0,0,0,2.478-4.83,4.4,4.4,0,0,1,.322-.742l-.924-.56a2.681,2.681,0,0,1-.91.126H20.006c.112-.2.224-.392.322-.588C20.468-9.688,20.72-10.164,20.944-10.528ZM29.2-5.054l.56,1.092A27.653,27.653,0,0,0,35.1-6.244v5.18a12.987,12.987,0,0,1-.084,1.5h1.372a10.564,10.564,0,0,1-.084-1.5V-6.972a22.9,22.9,0,0,0,3.78-3.122l-.938-.868a16.681,16.681,0,0,1-3.822,3.29A23.143,23.143,0,0,1,29.2-5.054Zm15.974-5.208-.8.854a29.076,29.076,0,0,1,3.486,2.926l.882-.882A30.656,30.656,0,0,0,45.178-10.262Zm-1.2,9.38L44.716.266a15.346,15.346,0,0,0,5.5-2.17,13.988,13.988,0,0,0,4.7-4.984l-.672-1.19a13.188,13.188,0,0,1-4.676,5.152A14.456,14.456,0,0,1,43.974-.882Z" transform="translate(1166 36)"/><path class="b" d="M127.688,231v-1.25h6.063v-12.5h-6.062V216h6.063a1.282,1.282,0,0,1,1.25,1.25v12.5a1.282,1.282,0,0,1-1.25,1.25Zm-1.625-3.854-.9-.9,2.125-2.125H120v-1.25h7.25l-2.125-2.125.9-.9,3.667,3.667Z" transform="translate(1025 -193)"/></g></svg>