<svg xmlns="http://www.w3.org/2000/svg" xmlns:xlink="http://www.w3.org/1999/xlink" width="40" height="40" viewBox="0 0 40 40"><defs><style>.a,.c{fill:#5b7593;}.a{stroke:#707070;}.b{fill:#fff;}.d{clip-path:url(#a);}</style><clipPath id="a"><rect class="a" width="10" height="7"/></clipPath></defs><circle class="b" cx="20" cy="20" r="20"/><path class="c" d="M20,1a19.005,19.005,0,0,0-7.4,36.507A19.005,19.005,0,0,0,27.4,2.493,18.88,18.88,0,0,0,20,1m0-1A20,20,0,1,1,0,20,20,20,0,0,1,20,0Z"/><g class="d" transform="translate(15 17)"><path class="c" d="M.811,0,0,.811,3.736,4.548,0,8.284.811,9.1,5.359,4.548Z" transform="translate(0.43 6.333) rotate(-90)"/></g></svg>