<svg xmlns="http://www.w3.org/2000/svg" xmlns:xlink="http://www.w3.org/1999/xlink" width="82.132" height="16" viewBox="0 0 82.132 16">
  <defs>
    <clipPath id="clip-path">
      <rect id="長方形_1470" data-name="長方形 1470" width="22" height="16" transform="translate(0 -1)" fill="#5b7593" stroke="#707070" stroke-width="1"/>
    </clipPath>
  </defs>
  <g id="btn-item" transform="translate(-13 -6)">
    <g id="グループ_158" data-name="グループ 158" transform="translate(13 4)">
      <path id="パス_383" data-name="パス 383" d="M11.872-6.622H7.238V-7.966h4.634Zm0,2.128H7.238V-5.852h4.634Zm0,2.142H7.238V-3.724h4.634ZM6.258-8.764V-1.54H12.88V-8.764H9.59c.14-.42.308-.91.448-1.386h3.388v-.9H5.572v.9h3.29c-.084.448-.2.952-.308,1.386ZM5.67-4.27l-2.016.686V-9.128H5.516v-.966H.784v.966H2.6v5.894c-.8.252-1.526.49-2.114.672l.42.98c1.372-.476,3.206-1.134,4.942-1.764ZM7.756-1.316A10.346,10.346,0,0,1,4.438.336a7.826,7.826,0,0,1,.658.742,13.179,13.179,0,0,0,3.57-1.82Zm2.31.616a17.127,17.127,0,0,1,2.758,1.792l.826-.63A18.022,18.022,0,0,0,10.836-1.26Zm7.21-.28v-2.3H24.6v2.3ZM24.6-6.566v2.3H17.276v-2.3Zm0-3.262V-7.56H17.276V-9.828Zm-8.344-1.008V.994h1.022V.042H24.6V.994h1.078v-11.83ZM39.872-5.012a20.372,20.372,0,0,1-2.646,1.988,9.442,9.442,0,0,1-1.176-2.45h5.012v-.91H35.49v-1.26h4.564V-8.5H35.49V-9.646h5.1v-.91h-5.1v-1.162H34.454v1.162H29.442v.91h5.012V-8.5H30.072v.854h4.382v1.26h-5.53v.91h4.844a15.378,15.378,0,0,1-5.306,2.716,6.685,6.685,0,0,1,.672.854,17.937,17.937,0,0,0,2.814-1.232V-.35c-.728.182-1.4.336-1.96.462l.336.952C31.99.644,34.37.056,36.568-.532l-.112-.924C35.294-1.162,34.1-.868,33-.6V-3.766A12.58,12.58,0,0,0,35.07-5.4c.98,3.164,2.772,5.418,5.754,6.426A3.337,3.337,0,0,1,41.5.112,7.607,7.607,0,0,1,37.73-2.352,25.206,25.206,0,0,0,40.7-4.368ZM53.9-10.668H44.128v1.022H53.9ZM45.318-4.914A10.587,10.587,0,0,1,42.546-.826a6.84,6.84,0,0,1,.938.63,13.2,13.2,0,0,0,2.9-4.438Zm6.23.406A18.446,18.446,0,0,1,54-.2L55.02-.644A17.521,17.521,0,0,0,52.5-4.9ZM42.882-7.294v1.022h5.586V-.308c0,.224-.084.294-.35.294S46.956,0,46-.028a4.719,4.719,0,0,1,.378,1.078A9.4,9.4,0,0,0,48.916.868c.49-.168.658-.49.658-1.148V-6.272h5.558V-7.294Z" transform="translate(27 16)" fill="#5b7593"/>
      <g id="icon_Item-display" transform="translate(0 3)" clip-path="url(#clip-path)">
        <path id="view_list_FILL0_wght400_GRAD0_opsz48" d="M86.328,269.594H97.344v-3.211H86.328Zm-4.922-8.977h3.516v-3.211H81.406Zm0,4.383h3.516v-2.977H81.406Zm0,4.594h3.516v-3.211H81.406ZM86.328,265H97.344v-2.977H86.328Zm0-4.383H97.344v-3.211H86.328ZM81.406,271A1.442,1.442,0,0,1,80,269.594V257.406A1.442,1.442,0,0,1,81.406,256H97.344a1.442,1.442,0,0,1,1.406,1.406v12.188A1.442,1.442,0,0,1,97.344,271Z" transform="translate(-78 -256)" fill="#5b7593"/>
      </g>
    </g>
  </g>
</svg>
