<svg xmlns="http://www.w3.org/2000/svg" xmlns:xlink="http://www.w3.org/1999/xlink" width="94.858" height="15" viewBox="0 0 94.858 15">
  <defs>
    <clipPath id="clip-path">
      <rect id="長方形_1431" data-name="長方形 1431" width="22" height="15" transform="translate(1143 23)" fill="#fff" stroke="#707070" stroke-width="1"/>
    </clipPath>
  </defs>
  <g id="btn-mylist" transform="translate(-1143 -23)">
    <path id="パス_399" data-name="パス 399" d="M12.11-9.59a2.848,2.848,0,0,1-.9.112H2.87A10.758,10.758,0,0,1,1.442-9.59v1.26c.28-.028.882-.084,1.428-.084H11.1A17.17,17.17,0,0,1,6.734-3.556c-.952-.854-2.1-1.778-2.618-2.156l-.91.728A33.035,33.035,0,0,1,6.412-2.226,33.584,33.584,0,0,1,8.932.63L9.954-.182C9.394-.868,8.4-1.918,7.56-2.758a21.915,21.915,0,0,0,5.1-5.684,3.965,3.965,0,0,1,.35-.434Zm13.02-1.344A15.447,15.447,0,0,1,21.448-7.84,22.1,22.1,0,0,1,15.19-5.264l.644,1.092A28,28,0,0,0,21.1-6.356v5.292a12.987,12.987,0,0,1-.084,1.5h1.372a10.564,10.564,0,0,1-.084-1.5V-7.056a21.96,21.96,0,0,0,3.752-3.038Zm5.964.42c.028.266.056.756.056,1.008v4.662c0,.42-.042.868-.056,1.078h1.288c-.028-.252-.042-.714-.042-1.064V-9.506c0-.336.014-.742.042-1.008Zm6.482-.1c.028.336.07.742.07,1.2V-7.2c0,2.646-.168,3.78-1.176,4.942A6.459,6.459,0,0,1,33.11-.392l.91.966A7.478,7.478,0,0,0,37.352-1.47c1.008-1.2,1.456-2.31,1.456-5.67V-9.408c0-.462.028-.868.056-1.2Zm14.91.7a3.729,3.729,0,0,1-1.05.126h-5.4c-.42,0-1.218-.07-1.414-.1V-8.61c.154-.014.924-.07,1.414-.07h5.46a12.475,12.475,0,0,1-2.324,3.892A16.009,16.009,0,0,1,43.4-.63l.9.938a17.748,17.748,0,0,0,5.46-4.088A32.325,32.325,0,0,1,53.606.378l.98-.854A40.149,40.149,0,0,0,50.5-4.648a17.718,17.718,0,0,0,2.352-4.1,4.016,4.016,0,0,1,.35-.616ZM67.858-4.788A45.5,45.5,0,0,0,61.88-7.1V-9.38c0-.42.056-1.022.1-1.456H60.606a8.836,8.836,0,0,1,.112,1.456v8.148A15.33,15.33,0,0,1,60.634.42h1.344a16.527,16.527,0,0,1-.084-1.652l-.014-4.62a36.7,36.7,0,0,1,5.5,2.254Z" transform="translate(1170 36)" fill="#fff"/>
    <g id="icon_mylist" clip-path="url(#clip-path)">
      <path id="playlist_add_FILL0_wght400_GRAD0_opsz48" d="M120,346.446v-1.607h8.036v1.607Zm0-4.42V340.42h12.589v1.607Zm0-4.42V336h12.589v1.607ZM134.2,351v-4.554h-4.554v-1.607H134.2v-4.554H135.8v4.554h4.554v1.607H135.8V351Z" transform="translate(1023.822 -313)" fill="#fff"/>
    </g>
  </g>
</svg>
