<svg xmlns="http://www.w3.org/2000/svg" xmlns:xlink="http://www.w3.org/1999/xlink" width="17" height="12" viewBox="0 0 17 12"><defs><style>.a{fill:#fff;stroke:#707070;}.b{clip-path:url(#a);}.c{fill:#333;}</style><clipPath id="a"><rect class="a" width="17" height="12" transform="translate(647 499)"/></clipPath></defs><g class="b" transform="translate(-647 -499)"><path class="c" d="M44.264,341.472a1.213,1.213,0,1,1,.853-.355A1.163,1.163,0,0,1,44.264,341.472Zm0,3.056A4.264,4.264,0,1,1,46.5,336.6a4.039,4.039,0,0,1,1.51,1.83h6.324l2.007,2.007-2.967,2.718-1.563-1.137-1.563,1.137-1.332-1.066h-.906a4.028,4.028,0,0,1-1.395,1.75A3.925,3.925,0,0,1,44.264,344.527Zm0-1.066a3.011,3.011,0,0,0,1.9-.684,3.048,3.048,0,0,0,1.119-1.75h2.025l.959.8,1.563-1.119,1.457,1.1,1.51-1.4-.906-.906H47.284a3.044,3.044,0,0,0-1.066-1.714,2.944,2.944,0,0,0-1.954-.719,3.2,3.2,0,1,0,0,6.4Z" transform="translate(607 164.736)"/></g></svg>