<svg xmlns="http://www.w3.org/2000/svg" width="14" height="14" viewBox="0 0 14 14">
  <path id="add_circle_FILL0_wght400_GRAD0_opsz48" d="M86.527,186.5h1.05v-2.9H90.5v-1.05H87.577V179.5h-1.05v3.045H83.5v1.05h3.028ZM87,190a6.776,6.776,0,0,1-2.721-.551,7.071,7.071,0,0,1-3.732-3.733,7.006,7.006,0,0,1,0-5.448,7,7,0,0,1,1.5-2.22,7.184,7.184,0,0,1,2.228-1.5,7.006,7.006,0,0,1,5.448,0,7,7,0,0,1,3.716,3.719,7,7,0,0,1,0,5.447,7.15,7.15,0,0,1-1.5,2.224,7.067,7.067,0,0,1-2.223,1.505A6.771,6.771,0,0,1,87,190Zm0-1.05a5.945,5.945,0,1,0-4.217-1.741A5.715,5.715,0,0,0,87.009,188.95ZM87,183Z" transform="translate(-80 -176)" fill="#333"/>
</svg>
