<svg xmlns="http://www.w3.org/2000/svg" xmlns:xlink="http://www.w3.org/1999/xlink" width="82.132" height="15" viewBox="0 0 82.132 15">
  <defs>
    <clipPath id="clip-path">
      <rect id="長方形_1583" data-name="長方形 1583" width="22" height="15" transform="translate(1143 23)" fill="#fff" stroke="#707070" stroke-width="1"/>
    </clipPath>
  </defs>
  <g id="btn-detail-search" transform="translate(-1150 -23)">
    <path id="パス_398" data-name="パス 398" d="M5.348-11.228H1.316v.84H5.348Zm.518,1.834H.588v.854H5.866Zm-1.4,6.468V-.574H2.128V-2.926Zm.91-.854H1.218V.91h.91V.266H5.376ZM1.246-4.816H5.39v-.84H1.246Zm0-1.862H5.39V-7.5H1.246Zm12.18,3.332h-3.3V-5.334h2.814v-.938H10.122v-1.82H13.23v-.966H11.4c.378-.63.826-1.554,1.218-2.352l-1.022-.322a16.932,16.932,0,0,1-1.064,2.478l.5.2H8.218l.5-.21A9.495,9.495,0,0,0,7.63-11.634l-.84.308A9.987,9.987,0,0,1,7.8-9.058H6.188v.966H9.114v1.82H6.454v.938h2.66v1.988H5.754v.952h3.36V1.064h1.008V-2.394h3.3Zm1.918-.434a10.829,10.829,0,0,1-.868,3.318,3.636,3.636,0,0,1,.812.392,12.836,12.836,0,0,0,.952-3.556Zm3.024.21a12.892,12.892,0,0,1,.91,2.716l.84-.28a13.969,13.969,0,0,0-.952-2.7Zm-.252-3.374a11.717,11.717,0,0,1,.63,1.092l-2.17.14A37.3,37.3,0,0,0,19.39-9.7l-.868-.42a29.866,29.866,0,0,1-1.568,2.6A9.883,9.883,0,0,0,16.1-8.5a30.1,30.1,0,0,0,1.638-2.856l-.938-.364a19.014,19.014,0,0,1-1.274,2.646c-.14-.126-.28-.252-.42-.364l-.532.686a11.027,11.027,0,0,1,1.834,2.016c-.28.392-.56.77-.84,1.092-.392.028-.756.056-1.092.07l.154.952,2.31-.21V1.05h.938V-4.928l1.26-.112A8.339,8.339,0,0,1,19.53-4l.84-.406A12.15,12.15,0,0,0,18.9-7.28ZM24.08-.826v-4H26v4Zm-2.744-4h1.82v4h-1.82Zm1.82-4.8v3.85h-1.82v-3.85ZM26-5.782H24.08v-3.85H26ZM20.4-10.6V.9h.938V.14H26V.784h.966V-10.6Zm14.21,7.084v-1.9h2.1v1.176c0,.238-.014.49-.028.728Zm5.222-1.9v1.9H37.618c.014-.238.028-.462.028-.7v-1.2ZM34.9-8.428a10.381,10.381,0,0,0,2.31-2.338A11.289,11.289,0,0,0,39.62-8.428Zm5.88,5.768v-3.6H37.646V-7.546h2.24v-.7a12.762,12.762,0,0,0,1.2.742,5.473,5.473,0,0,1,.56-.91,10.391,10.391,0,0,1-4.018-3.276h-.938a9.2,9.2,0,0,1-3.472,3.206v-.238H31.71v-3h-.98v3H28.77v.966h1.876a15.768,15.768,0,0,1-2.17,5.278,7.455,7.455,0,0,1,.546.91,14.623,14.623,0,0,0,1.708-3.85V1.05h.98V-5.5a21.3,21.3,0,0,1,1.106,2.016l.574-.826c-.224-.364-1.288-1.89-1.68-2.394v-1.05h1.512V-7.84a2.936,2.936,0,0,1,.182.364A10.238,10.238,0,0,0,34.58-8.2v.658h2.128v1.288H33.684v3.6H36.5C36.134-1.5,35.168-.434,32.732.35a2.776,2.776,0,0,1,.56.784c2.394-.8,3.5-1.946,4-3.206A5.944,5.944,0,0,0,40.95,1.134a2.675,2.675,0,0,1,.6-.882A5.273,5.273,0,0,1,38.024-2.66Zm5.292.7A11.686,11.686,0,0,1,42.672.2a5.911,5.911,0,0,1,.812.714A14.483,14.483,0,0,0,47.068-1.6Zm7.392-.546c.322.266.6.518.826.742l.728-.63a21.818,21.818,0,0,0-3.556-2.534l-.672.546c.518.322,1.092.7,1.638,1.092-1.6.028-3.206.056-4.69.07a44.624,44.624,0,0,0,4.144-2.954l-.952-.5a31.109,31.109,0,0,1-2.968,2.31,13.926,13.926,0,0,0-1.3-.882A24.653,24.653,0,0,0,48.9-7.112l-.434-.21h5.488v1.708h1.022v-2.6h-5.5V-9.576h5.376v-.91H49.476v-1.232H48.454v1.232H43.12v.91h5.334v1.358H43.078v2.6h.98V-7.322h3.654a17.165,17.165,0,0,1-1.82,1.638c-.238-.126-.49-.252-.714-.364l-.686.588a16.558,16.558,0,0,1,2.632,1.652c-.322.21-.644.42-.966.6-1.2.014-2.3.014-3.192.014l.056.966c1.456-.028,3.374-.07,5.446-.126V1.092h1.008V-2.38ZM50.82-1.4A17.681,17.681,0,0,1,54.264.882l.868-.63a18.9,18.9,0,0,0-3.514-2.184Z" transform="translate(1177 36)" fill="#fff"/>
    <g id="icon_detailed-search" transform="translate(7)" clip-path="url(#clip-path)">
      <path id="manage_search_FILL0_wght400_GRAD0_opsz48" d="M80,350v-1.615H90.769V350Zm0-5.654v-1.615h5.385v1.615Zm0-5.654v-1.615h5.385v1.615ZM100.408,350,96.1,345.692a5.111,5.111,0,0,1-1.508.808,5.244,5.244,0,0,1-1.669.269,5.388,5.388,0,1,1,5.385-5.385,5.244,5.244,0,0,1-.269,1.669,5.111,5.111,0,0,1-.808,1.508l4.308,4.308Zm-7.491-4.846a3.758,3.758,0,1,0-2.665-1.1A3.65,3.65,0,0,0,92.917,345.154Z" transform="translate(1063 -312.5)" fill="#fff"/>
    </g>
  </g>
</svg>
