<svg xmlns="http://www.w3.org/2000/svg" width="129" height="30" viewBox="0 0 129 30">
  <g id="btn-index" transform="translate(-20 -369)">
    <g id="パス_377" data-name="パス 377" transform="translate(20 369)" fill="none">
      <path d="M0,0H119l10,6V24l-10,6H0Z" stroke="none"/>
      <path d="M 1 1 L 1 29 L 118.7229995727539 29 L 128 23.43379974365234 L 128 6.566200256347656 L 118.7229995727539 1 L 1 1 M 0 0 L 119 0 L 129 6 L 129 24 L 119 30 L 0 30 L 0 0 Z" stroke="none" fill="#fff"/>
    </g>
    <g id="index">
      <path id="パス_404" data-name="パス 404" d="M11.13-10.934A15.447,15.447,0,0,1,7.448-7.84,22.1,22.1,0,0,1,1.19-5.264l.644,1.092A28,28,0,0,0,7.1-6.356v5.292a12.987,12.987,0,0,1-.084,1.5H8.386a10.564,10.564,0,0,1-.084-1.5V-7.056a21.96,21.96,0,0,0,3.752-3.038Zm6.048.672-.8.854a29.076,29.076,0,0,1,3.486,2.926l.882-.882A30.656,30.656,0,0,0,17.178-10.262Zm-1.2,9.38L16.716.266a15.091,15.091,0,0,0,5.5-2.184,13.964,13.964,0,0,0,4.7-4.97l-.672-1.19a13.188,13.188,0,0,1-4.676,5.152A14.456,14.456,0,0,1,15.974-.882ZM40.138-9.45a19.841,19.841,0,0,0-1.148-1.918l-.742.322a14.844,14.844,0,0,1,1.134,1.932Zm-3.178.336c.406,0,.9.014,1.3.042v-1.162a10.329,10.329,0,0,1-1.3.084H32.116a12.165,12.165,0,0,1-1.274-.084v1.162c.364-.028.826-.042,1.288-.042ZM30.408-6.65c-.434,0-.84-.028-1.218-.056v1.148c.378-.028.784-.028,1.218-.028h4.186a6.778,6.778,0,0,1-.812,3.472A5.8,5.8,0,0,1,31.136.028L32.172.8A6.832,6.832,0,0,0,34.93-1.764a8.474,8.474,0,0,0,.826-3.822h3.808c.336,0,.784.014,1.092.028V-6.706a10.013,10.013,0,0,1-1.092.056Zm9.38-4.97A13.336,13.336,0,0,1,40.95-9.688l.756-.336a18.412,18.412,0,0,0-1.176-1.9Zm8.974,3.556-1.022.35a26.389,26.389,0,0,1,1.092,3.038l1.036-.364C49.686-5.656,49-7.5,48.762-8.064Zm3.864.406A9.6,9.6,0,0,1,50.694-2.87,9.3,9.3,0,0,1,46.144.1l.924.952a10.786,10.786,0,0,0,4.564-3.332,10.973,10.973,0,0,0,1.988-4.3c.056-.182.112-.406.21-.7Zm-7.112.294-1.036.406a25.042,25.042,0,0,1,1.246,3.15L46.788-4.2C46.522-4.928,45.794-6.762,45.514-7.364ZM67.27-9.31a2.681,2.681,0,0,1-.91.126H62.552a6.292,6.292,0,0,0,.336-.588c.14-.266.392-.728.63-1.092l-1.3-.434a4.239,4.239,0,0,1-.434,1.106,11.443,11.443,0,0,1-4.4,4.732l.966.728a13.885,13.885,0,0,0,3.542-3.444h4.732A11.269,11.269,0,0,1,64.4-3.808,11.326,11.326,0,0,1,58.814-.294l1.008.91a12.275,12.275,0,0,0,5.572-3.808,13.642,13.642,0,0,0,2.478-4.816,5.974,5.974,0,0,1,.336-.742Zm12.8-.6a3.729,3.729,0,0,1-1.05.126h-5.4c-.42,0-1.218-.07-1.414-.1V-8.61c.154-.014.924-.07,1.414-.07h5.46a12.475,12.475,0,0,1-2.324,3.892A16.009,16.009,0,0,1,70.98-.63l.9.938a17.748,17.748,0,0,0,5.46-4.088A32.325,32.325,0,0,1,81.186.378l.98-.854a40.149,40.149,0,0,0-4.088-4.172,17.719,17.719,0,0,0,2.352-4.1,4.016,4.016,0,0,1,.35-.616Z" transform="translate(54 390)" fill="#fff"/>
      <g id="グループ_1078" data-name="グループ 1078" transform="translate(-2 2)">
        <rect id="長方形_1819" data-name="長方形 1819" width="18" height="1" transform="translate(30 377)" fill="#fff"/>
        <rect id="長方形_1820" data-name="長方形 1820" width="18" height="1" transform="translate(30 382)" fill="#fff"/>
        <rect id="長方形_1821" data-name="長方形 1821" width="18" height="1" transform="translate(30 387)" fill="#fff"/>
      </g>
    </g>
  </g>
</svg>
