<svg xmlns="http://www.w3.org/2000/svg" width="88.858" height="15" viewBox="0 0 88.858 15">
  <g id="btn-login" transform="translate(-1131 -23)">
    <path id="パス_397" data-name="パス 397" d="M10.864-8.456v6.65H3.206v-6.65ZM12.012-8.5c0-.35,0-.742.028-1.092-.42.028-.924.028-1.232.028H3.29c-.322,0-.7-.014-1.246-.028.028.336.028.77.028,1.092V-1.61c0,.49-.028,1.526-.042,1.694h1.2c-.014-.1-.014-.434-.028-.8H10.85c0,.378-.014.7-.014.8h1.2c-.014-.154-.028-1.232-.028-1.68Zm7.994-.35c.112-.2.224-.392.322-.588.14-.252.392-.728.616-1.092l-1.288-.434a5.192,5.192,0,0,1-.434,1.12,11.726,11.726,0,0,1-4.4,4.732l.966.714A13.509,13.509,0,0,0,19.348-7.84h4.718A11.175,11.175,0,0,1,21.84-3.472,11.212,11.212,0,0,1,16.24.042l1.022.924a12.462,12.462,0,0,0,5.572-3.808,13.694,13.694,0,0,0,2.478-4.83,4.4,4.4,0,0,1,.322-.742l-.924-.56a2.681,2.681,0,0,1-.91.126Zm3.962-2.03A15.834,15.834,0,0,1,25.1-8.946l.756-.336A19.841,19.841,0,0,0,24.71-11.2Zm1.54-.56A14.55,14.55,0,0,1,26.67-9.52l.742-.336a17.359,17.359,0,0,0-1.162-1.9Zm8.68,3.822a8.416,8.416,0,0,1,.056,1.008c0,2.338-.308,4.34-2.478,5.67a5.412,5.412,0,0,1-1.246.616l1.022.84c3.57-1.778,3.906-4.34,3.906-8.134Zm6.16-2.506a6.914,6.914,0,0,1-.98.084H31.332a14.765,14.765,0,0,1-1.6-.112v1.26a15.854,15.854,0,0,1,1.6-.084H39.3a9.445,9.445,0,0,1-3.052,3.136l.924.742A13.5,13.5,0,0,0,40.656-8.96c.1-.154.28-.364.378-.5ZM53.592-8.974a2.752,2.752,0,0,1-.966.112H49.49v-1.3a6.254,6.254,0,0,1,.084-1.05H48.23a7.854,7.854,0,0,1,.07,1.05v1.3H45.206a12.4,12.4,0,0,1-1.3-.056,9.372,9.372,0,0,1,.042,1.078v2.464c0,.266-.014.644-.042.882h1.218a5.108,5.108,0,0,1-.056-.826V-7.826h7.826a10.312,10.312,0,0,1-1.33,4.088A7.388,7.388,0,0,1,47.768-.924a7.456,7.456,0,0,1-1.456.392l.91,1.05a8.863,8.863,0,0,0,5.544-3.976,12.875,12.875,0,0,0,1.372-4.2c.056-.266.14-.63.21-.84ZM67.858-4.788A45.5,45.5,0,0,0,61.88-7.1V-9.38c0-.42.056-1.022.1-1.456H60.606a8.836,8.836,0,0,1,.112,1.456v8.148A15.33,15.33,0,0,1,60.634.42h1.344a16.527,16.527,0,0,1-.084-1.652l-.014-4.62a36.7,36.7,0,0,1,5.5,2.254Z" transform="translate(1152 36)" fill="#fff"/>
    <path id="logout_FILL0_wght400_GRAD0_opsz48" d="M121.25,231a1.282,1.282,0,0,1-1.25-1.25v-12.5a1.282,1.282,0,0,1,1.25-1.25h6.062v1.25H121.25v12.5h6.062V231Zm10.125-3.854-.9-.9,2.125-2.125h-7.292v-1.25h7.25l-2.125-2.125.9-.9L135,223.521Z" transform="translate(1011 -193)" fill="#fff"/>
  </g>
</svg>
