<svg xmlns="http://www.w3.org/2000/svg" xmlns:xlink="http://www.w3.org/1999/xlink" width="110" height="28" viewBox="0 0 110 28"><defs><style>.a,.c{fill:#5b7593;}.a{stroke:#707070;}.b{fill:#fff;}.d{clip-path:url(#a);}</style><clipPath id="a"><path class="a" d="M0,0H22V16H0Z" transform="translate(0 -1)"/></clipPath></defs><rect class="b" width="110" height="28" rx="14"/><path class="c" d="M14,1A13,13,0,0,0,4.808,23.192,12.915,12.915,0,0,0,14,27H96a13,13,0,0,0,9.192-22.192A12.915,12.915,0,0,0,96,1H14m0-1H96a14,14,0,0,1,0,28H14A14,14,0,0,1,14,0Z"/><g transform="translate(8 4)"><path class="c" d="M12.054-9.31,11.2-9.856a2.875,2.875,0,0,1-.742.07H3.43c-.462,0-1.008-.042-1.4-.084v1.232c.364-.014.84-.042,1.4-.042h7.154A10.651,10.651,0,0,1,8.75-4.116,9.342,9.342,0,0,1,3.29-.742L4.242.308A10.7,10.7,0,0,0,9.758-3.444,13.677,13.677,0,0,0,11.844-8.61,2.952,2.952,0,0,1,12.054-9.31Zm3.374,5.7.532,1.036a26.277,26.277,0,0,0,4.382-1.848V-.14c0,.434-.028,1.008-.056,1.232h1.288A7.379,7.379,0,0,1,21.5-.14V-5.124a17.345,17.345,0,0,0,3.164-2.618l-.868-.84a13.835,13.835,0,0,1-3.332,2.856A19.082,19.082,0,0,1,15.428-3.612ZM35.056-.294,35.8.322A3,3,0,0,1,36.274,0a13.918,13.918,0,0,0,4.774-3.878L40.39-4.83A10.757,10.757,0,0,1,36.3-1.386V-9.464a8.663,8.663,0,0,1,.056-1.036H35.07a6.644,6.644,0,0,1,.084,1.036v8.386A3.333,3.333,0,0,1,35.056-.294Zm-6.412-.07,1.05.714A7.824,7.824,0,0,0,32.186-3.5a30.625,30.625,0,0,0,.434-5.95c0-.42.056-.84.07-1.008H31.4a5.157,5.157,0,0,1,.1,1.022,24.992,24.992,0,0,1-.42,5.628A6.645,6.645,0,0,1,28.644-.364ZM49.224-10.99,47.95-11.4A5.056,5.056,0,0,1,47.5-10.29a12.83,12.83,0,0,1-4.494,4.872l.938.728a15.272,15.272,0,0,0,3.71-3.71h4.732a11.7,11.7,0,0,1-1.9,3.878c-.98-.686-2.03-1.358-2.954-1.89l-.756.77c.9.56,1.96,1.288,2.968,2.016A12.281,12.281,0,0,1,44.324-.252l1.008.868A13.285,13.285,0,0,0,50.666-2.94c.574.462,1.106.9,1.526,1.274l.826-.966c-.448-.364-1.008-.8-1.6-1.232a14.092,14.092,0,0,0,2.184-4.354,4.6,4.6,0,0,1,.336-.756l-.924-.56a2.79,2.79,0,0,1-.924.14H48.3a4.7,4.7,0,0,0,.294-.5C48.734-10.15,48.986-10.626,49.224-10.99Zm7.924,4.928V-4.69c.434-.042,1.176-.07,1.946-.07H66.78c.63,0,1.218.056,1.5.07V-6.062c-.308.028-.812.07-1.512.07H59.094C58.31-5.992,57.568-6.034,57.148-6.062Z" transform="translate(22 16)"/><g class="d" transform="translate(0 3)"><path class="c" d="M159.115,270a.859.859,0,0,1-.875-.875v-5.25l-5.228-6.672a.662.662,0,0,1-.087-.788A.719.719,0,0,1,153.6,256h12.775a.719.719,0,0,1,.678.416.662.662,0,0,1-.088.788l-5.228,6.672v5.25a.859.859,0,0,1-.875.875Zm.875-6.038,5.25-6.65h-10.5ZM159.99,263.962Z" transform="translate(-148.99 -255.5)"/></g></g></svg>